<svg width="18" height="18" viewBox="0 0 18 18" fill="none" xmlns="http://www.w3.org/2000/svg">
<path d="M15.25 8.95841C15.25 12.4332 12.4331 15.2501 8.95829 15.2501V17.2501C13.5377 17.2501 17.25 13.5378 17.25 8.95841H15.25ZM8.95829 15.2501C5.4835 15.2501 2.66663 12.4332 2.66663 8.95841H0.666626C0.666626 13.5378 4.37893 17.2501 8.95829 17.2501V15.2501ZM2.66663 8.95841C2.66663 5.48362 5.4835 2.66675 8.95829 2.66675V0.666748C4.37893 0.666748 0.666626 4.37905 0.666626 8.95841H2.66663ZM8.95829 2.66675C12.4331 2.66675 15.25 5.48362 15.25 8.95841H17.25C17.25 4.37905 13.5377 0.666748 8.95829 0.666748V2.66675Z" fill="#959BA5"/>
</svg>
