<svg width="231" height="26" viewBox="0 0 231 26" fill="none" xmlns="http://www.w3.org/2000/svg">
<path d="M0.888 25V1.24H9.348C12.156 1.24 14.208 1.828 15.504 3.004C16.8 4.18 17.448 5.776 17.448 7.792C17.448 8.992 17.1 10.084 16.404 11.068C15.708 12.028 14.724 12.64 13.452 12.904V12.94C14.868 13.204 15.984 13.852 16.8 14.884C17.64 15.892 18.06 17.044 18.06 18.34C18.06 20.356 17.304 21.976 15.792 23.2C14.28 24.4 12.12 25 9.312 25H0.888ZM3.768 22.3H9.996C11.7 22.3 12.96 21.952 13.776 21.256C14.616 20.56 15.036 19.588 15.036 18.34C15.036 17.068 14.616 16.096 13.776 15.424C12.96 14.728 11.7 14.38 9.996 14.38H3.768V22.3ZM3.768 11.68H9.384C12.744 11.68 14.424 10.384 14.424 7.792C14.424 5.224 12.744 3.94 9.384 3.94H3.768V11.68ZM27.2875 22.3H40.8955V25H24.4075V1.24H27.2875V22.3ZM54.6554 0.879999C56.9114 0.879999 58.8554 1.384 60.4874 2.392C62.1434 3.376 63.4154 4.78 64.3034 6.604C65.2154 8.428 65.6714 10.6 65.6714 13.12C65.6714 15.64 65.2154 17.812 64.3034 19.636C63.4154 21.46 62.1434 22.876 60.4874 23.884C58.8554 24.868 56.9114 25.36 54.6554 25.36C52.3994 25.36 50.4434 24.868 48.7874 23.884C47.1554 22.876 45.8834 21.46 44.9714 19.636C44.0834 17.812 43.6394 15.64 43.6394 13.12C43.6394 10.6 44.0834 8.428 44.9714 6.604C45.8834 4.78 47.1554 3.376 48.7874 2.392C50.4434 1.384 52.3994 0.879999 54.6554 0.879999ZM54.6554 3.58C53.0234 3.58 51.6074 3.964 50.4074 4.732C49.2074 5.476 48.2834 6.568 47.6354 8.008C46.9874 9.424 46.6634 11.128 46.6634 13.12C46.6634 15.112 46.9874 16.828 47.6354 18.268C48.2834 19.684 49.2074 20.776 50.4074 21.544C51.6074 22.288 53.0234 22.66 54.6554 22.66C56.3114 22.66 57.7274 22.288 58.9034 21.544C60.1034 20.776 61.0274 19.684 61.6754 18.268C62.3234 16.828 62.6474 15.112 62.6474 13.12C62.6474 11.128 62.3234 9.424 61.6754 8.008C61.0274 6.568 60.1034 5.476 58.9034 4.732C57.7274 3.964 56.3114 3.58 54.6554 3.58ZM103.431 18.916C102.927 20.26 102.207 21.424 101.271 22.408C100.335 23.368 99.2306 24.1 97.9586 24.604C96.7106 25.108 95.3426 25.36 93.8546 25.36C91.5986 25.36 89.6426 24.868 87.9866 23.884C86.3546 22.876 85.0826 21.46 84.1706 19.636C83.2826 17.812 82.8386 15.64 82.8386 13.12C82.8386 10.6 83.2826 8.428 84.1706 6.604C85.0826 4.78 86.3546 3.376 87.9866 2.392C89.6426 1.384 91.5746 0.879999 93.7826 0.879999C95.3186 0.879999 96.6866 1.096 97.8866 1.528C99.0866 1.936 100.107 2.56 100.947 3.4C101.811 4.216 102.495 5.224 102.999 6.424L100.155 7.756C99.6266 6.388 98.8586 5.356 97.8506 4.66C96.8666 3.94 95.5826 3.58 93.9986 3.58C92.3906 3.58 90.9746 3.964 89.7506 4.732C88.5266 5.476 87.5666 6.556 86.8706 7.972C86.1986 9.388 85.8626 11.104 85.8626 13.12C85.8626 15.112 86.1866 16.828 86.8346 18.268C87.4826 19.684 88.4066 20.776 89.6066 21.544C90.8066 22.288 92.2226 22.66 93.8546 22.66C95.4386 22.66 96.8186 22.264 97.9946 21.472C99.1706 20.656 100.023 19.444 100.551 17.836L103.431 18.916ZM138.429 1.24L129.429 25H126.153L117.117 1.24H120.213L126.261 17.656L127.773 22.372L129.285 17.692L135.333 1.24H138.429ZM143.341 25V1.24H160.009V3.94H146.221V11.608H156.949V14.308H146.221V22.3H160.549V25H143.341ZM175.298 1.24C177.722 1.24 179.666 1.864 181.13 3.112C182.594 4.36 183.326 6.052 183.326 8.188C183.326 10.324 182.582 11.992 181.094 13.192C179.63 14.368 177.686 14.956 175.262 14.956L175.01 15.136H169.178V25H166.298V1.24H175.298ZM175.262 12.436C176.966 12.436 178.226 12.088 179.042 11.392C179.882 10.672 180.302 9.604 180.302 8.188C180.302 6.772 179.882 5.716 179.042 5.02C178.226 4.3 176.966 3.94 175.262 3.94H169.178V12.436H175.262ZM176.918 13.012L184.766 25H181.346L174.506 14.596L176.918 13.012ZM197.872 0.879999C199.96 0.879999 201.76 1.312 203.272 2.176C204.784 3.016 206.044 4.264 207.052 5.92L204.64 7.792C203.752 6.256 202.744 5.176 201.616 4.552C200.512 3.904 199.168 3.58 197.584 3.58C196.312 3.58 195.256 3.76 194.416 4.12C193.6 4.48 193 4.96 192.616 5.56C192.232 6.136 192.04 6.796 192.04 7.54C192.04 8.38 192.304 9.124 192.832 9.772C193.36 10.396 194.416 10.888 196 11.248L201.148 12.4C203.428 12.904 205.012 13.672 205.9 14.704C206.812 15.712 207.268 16.972 207.268 18.484C207.268 19.828 206.884 21.028 206.116 22.084C205.372 23.116 204.316 23.92 202.948 24.496C201.58 25.072 199.972 25.36 198.124 25.36C196.396 25.36 194.872 25.132 193.552 24.676C192.256 24.196 191.14 23.56 190.204 22.768C189.268 21.976 188.5 21.088 187.9 20.104L190.42 18.052C190.876 18.964 191.464 19.768 192.184 20.464C192.904 21.16 193.768 21.7 194.776 22.084C195.808 22.468 196.984 22.66 198.304 22.66C199.528 22.66 200.584 22.516 201.472 22.228C202.384 21.916 203.08 21.472 203.56 20.896C204.04 20.296 204.28 19.576 204.28 18.736C204.28 17.968 204.028 17.284 203.524 16.684C203.02 16.06 202.072 15.592 200.68 15.28L195.1 14.02C193.636 13.684 192.448 13.228 191.536 12.652C190.648 12.052 190 11.356 189.592 10.564C189.208 9.748 189.016 8.872 189.016 7.936C189.016 6.664 189.364 5.5 190.06 4.444C190.78 3.364 191.8 2.5 193.12 1.852C194.464 1.204 196.048 0.879999 197.872 0.879999ZM213.302 25V1.24H229.97V3.94H216.182V11.608H226.91V14.308H216.182V22.3H230.51V25H213.302Z" fill="#BFD2F8"/>
</svg>
