<svg width="44" height="44" viewBox="0 0 44 44" fill="none" xmlns="http://www.w3.org/2000/svg">
<g filter="url(#filter0_b_1_82)">
<rect width="44" height="44" rx="22" fill="white" fill-opacity="0.3"/>
<path d="M14.4507 23.9082L21.4033 30.4395C21.6428 30.6644 21.7625 30.7769 21.9037 30.8046C21.9673 30.8171 22.0327 30.8171 22.0963 30.8046C22.2375 30.7769 22.3572 30.6644 22.5967 30.4395L29.5493 23.9082C31.5055 22.0706 31.743 19.0466 30.0978 16.9261L29.7885 16.5273C27.8203 13.9906 23.8696 14.416 22.4867 17.3137C22.2913 17.723 21.7087 17.723 21.5133 17.3137C20.1304 14.416 16.1797 13.9906 14.2115 16.5273L13.9022 16.9261C12.2569 19.0466 12.4945 22.0706 14.4507 23.9082Z" fill="white"/>
</g>
<defs>
<filter id="filter0_b_1_82" x="-50" y="-50" width="144" height="144" filterUnits="userSpaceOnUse" color-interpolation-filters="sRGB">
<feFlood flood-opacity="0" result="BackgroundImageFix"/>
<feGaussianBlur in="BackgroundImageFix" stdDeviation="25"/>
<feComposite in2="SourceAlpha" operator="in" result="effect1_backgroundBlur_1_82"/>
<feBlend mode="normal" in="SourceGraphic" in2="effect1_backgroundBlur_1_82" result="shape"/>
</filter>
</defs>
</svg>
