<svg width="232" height="26" viewBox="0 0 232 26" fill="none" xmlns="http://www.w3.org/2000/svg">
<path d="M0.0960001 25V1.24H10.5C13.38 1.24 15.504 1.804 16.872 2.932C18.24 4.06 18.924 5.656 18.924 7.72C18.924 8.992 18.54 10.12 17.772 11.104C17.004 12.088 15.876 12.712 14.388 12.976V13.012C16.044 13.252 17.316 13.876 18.204 14.884C19.092 15.892 19.536 17.092 19.536 18.484C19.536 20.524 18.792 22.12 17.304 23.272C15.84 24.424 13.692 25 10.86 25H0.0960001ZM4.92 21.256H10.428C11.772 21.256 12.768 20.98 13.416 20.428C14.064 19.876 14.388 19.108 14.388 18.124C14.388 17.116 14.064 16.348 13.416 15.82C12.768 15.292 11.772 15.028 10.428 15.028H4.92V21.256ZM4.92 11.212H9.852C12.468 11.212 13.776 10.192 13.776 8.152C13.776 6.112 12.468 5.092 9.852 5.092H4.92V11.212ZM29.2515 21.004H41.7795V25H24.2835V1.24H29.2515V21.004ZM55.356 0.879999C57.708 0.879999 59.736 1.372 61.44 2.356C63.144 3.34 64.452 4.744 65.364 6.568C66.3 8.392 66.768 10.576 66.768 13.12C66.768 15.664 66.3 17.848 65.364 19.672C64.452 21.496 63.144 22.9 61.44 23.884C59.736 24.868 57.708 25.36 55.356 25.36C53.004 25.36 50.964 24.868 49.236 23.884C47.532 22.9 46.212 21.496 45.276 19.672C44.364 17.848 43.908 15.664 43.908 13.12C43.908 10.576 44.364 8.392 45.276 6.568C46.212 4.744 47.532 3.34 49.236 2.356C50.964 1.372 53.004 0.879999 55.356 0.879999ZM55.356 4.948C54.012 4.948 52.872 5.26 51.936 5.884C51 6.508 50.28 7.432 49.776 8.656C49.296 9.856 49.056 11.344 49.056 13.12C49.056 14.872 49.296 16.36 49.776 17.584C50.28 18.808 51 19.732 51.936 20.356C52.872 20.98 54.012 21.292 55.356 21.292C56.676 21.292 57.804 20.98 58.74 20.356C59.676 19.732 60.384 18.808 60.864 17.584C61.368 16.36 61.62 14.872 61.62 13.12C61.62 11.344 61.368 9.856 60.864 8.656C60.384 7.432 59.676 6.508 58.74 5.884C57.804 5.26 56.676 4.948 55.356 4.948Z" fill="black"/>
<path d="M104.389 18.448C103.933 19.984 103.213 21.268 102.229 22.3C101.245 23.332 100.081 24.1 98.7371 24.604C97.3931 25.108 95.9171 25.36 94.3091 25.36C91.9571 25.36 89.9171 24.868 88.1891 23.884C86.4851 22.9 85.1651 21.496 84.2291 19.672C83.3171 17.848 82.8611 15.664 82.8611 13.12C82.8611 10.576 83.3171 8.392 84.2291 6.568C85.1651 4.744 86.4851 3.34 88.1891 2.356C89.9171 1.372 91.9331 0.879999 94.2371 0.879999C95.8691 0.879999 97.3451 1.108 98.6651 1.564C99.9851 1.996 101.101 2.668 102.013 3.58C102.949 4.492 103.633 5.644 104.065 7.036L99.5651 8.944C99.1571 7.504 98.5331 6.484 97.6931 5.884C96.8531 5.26 95.7731 4.948 94.4531 4.948C93.1571 4.948 92.0171 5.26 91.0331 5.884C90.0731 6.508 89.3291 7.432 88.8011 8.656C88.2731 9.856 88.0091 11.344 88.0091 13.12C88.0091 14.872 88.2491 16.36 88.7291 17.584C89.2331 18.808 89.9651 19.732 90.9251 20.356C91.8851 20.98 93.0611 21.292 94.4531 21.292C95.7491 21.292 96.8651 20.944 97.8011 20.248C98.7611 19.552 99.4331 18.496 99.8171 17.08L104.389 18.448ZM139.057 1.24L130.417 25H124.621L115.945 1.24H121.201L126.205 16.36L127.573 21.04L128.905 16.396L133.945 1.24H139.057ZM142.655 25V1.24H160.475V5.236H147.623V11.14H157.739V14.956H147.623V21.004H160.979V25H142.655ZM175.912 1.24C178.6 1.24 180.712 1.888 182.248 3.184C183.784 4.48 184.552 6.22 184.552 8.404C184.552 10.732 183.784 12.52 182.248 13.768C180.712 14.992 178.612 15.604 175.948 15.604L175.444 15.892H170.332V25H165.436V1.24H175.912ZM175.336 12.112C176.728 12.112 177.76 11.836 178.432 11.284C179.128 10.708 179.476 9.832 179.476 8.656C179.476 7.48 179.128 6.616 178.432 6.064C177.76 5.488 176.728 5.2 175.336 5.2H170.332V12.112H175.336ZM178.252 13.156L185.956 25H180.376L174.004 14.596L178.252 13.156ZM198.581 0.879999C200.741 0.879999 202.637 1.252 204.269 1.996C205.901 2.74 207.293 3.844 208.445 5.308L205.673 8.512C204.689 7.264 203.609 6.352 202.433 5.776C201.281 5.176 199.937 4.876 198.401 4.876C197.393 4.876 196.553 5.008 195.881 5.272C195.233 5.536 194.753 5.884 194.441 6.316C194.153 6.748 194.009 7.228 194.009 7.756C194.009 8.404 194.261 8.956 194.765 9.412C195.269 9.844 196.133 10.204 197.357 10.492L201.785 11.5C204.137 12.028 205.817 12.82 206.825 13.876C207.857 14.908 208.373 16.252 208.373 17.908C208.373 19.468 207.965 20.812 207.149 21.94C206.333 23.044 205.193 23.896 203.729 24.496C202.265 25.072 200.585 25.36 198.689 25.36C197.033 25.36 195.509 25.168 194.117 24.784C192.749 24.376 191.525 23.824 190.445 23.128C189.365 22.432 188.465 21.628 187.745 20.716L190.553 17.368C191.105 18.136 191.789 18.82 192.605 19.42C193.421 20.02 194.345 20.5 195.377 20.86C196.433 21.196 197.537 21.364 198.689 21.364C199.673 21.364 200.501 21.256 201.173 21.04C201.869 20.8 202.385 20.476 202.721 20.068C203.081 19.636 203.261 19.12 203.261 18.52C203.261 17.896 203.045 17.368 202.613 16.936C202.205 16.48 201.437 16.132 200.309 15.892L195.485 14.812C194.093 14.476 192.893 14.044 191.885 13.516C190.901 12.964 190.145 12.268 189.617 11.428C189.113 10.564 188.861 9.544 188.861 8.368C188.861 6.952 189.245 5.68 190.013 4.552C190.781 3.424 191.885 2.536 193.325 1.888C194.789 1.216 196.541 0.879999 198.581 0.879999ZM213.073 25V1.24H230.893V5.236H218.041V11.14H228.157V14.956H218.041V21.004H231.397V25H213.073Z" fill="#159EEC"/>
</svg>
