<svg width="35" height="35" viewBox="0 0 35 35" fill="none" xmlns="http://www.w3.org/2000/svg">
<g clip-path="url(#clip0_1_150)">
<path d="M13.5 19.125C14.7153 19.125 15.7483 18.6997 16.599 17.849C17.4497 16.9983 17.875 15.9653 17.875 14.75C17.875 13.5347 17.4497 12.5017 16.599 11.651C15.7483 10.8003 14.7153 10.375 13.5 10.375C12.2847 10.375 11.2517 10.8003 10.401 11.651C9.55035 12.5017 9.125 13.5347 9.125 14.75C9.125 15.9653 9.55035 16.9983 10.401 17.849C11.2517 18.6997 12.2847 19.125 13.5 19.125ZM4.75 26.0521C5.84375 24.7639 7.15625 23.7734 8.6875 23.0807C10.2187 22.388 11.8229 22.0417 13.5 22.0417C15.1771 22.0417 16.7812 22.388 18.3125 23.0807C19.8437 23.7734 21.1562 24.7639 22.25 26.0521V8.91667H4.75V26.0521ZM4.75 29.3333C3.94792 29.3333 3.26128 29.0477 2.6901 28.4766C2.11892 27.9054 1.83333 27.2187 1.83333 26.4167V8.91667C1.83333 8.11458 2.11892 7.42795 2.6901 6.85677C3.26128 6.28559 3.94792 6 4.75 6H22.25C23.0521 6 23.7387 6.28559 24.3099 6.85677C24.8811 7.42795 25.1667 8.11458 25.1667 8.91667V26.4167C25.1667 27.2187 24.8811 27.9054 24.3099 28.4766C23.7387 29.0477 23.0521 29.3333 22.25 29.3333H4.75ZM-1.08333 35.1667C-1.88542 35.1667 -2.57205 34.8811 -3.14323 34.3099C-3.71441 33.7387 -4 33.0521 -4 32.25V11.8333H-1.08333V32.25H19.3333V35.1667H-1.08333ZM13.5 16.2083C13.0868 16.2083 12.7405 16.0686 12.4609 15.7891C12.1814 15.5095 12.0417 15.1632 12.0417 14.75C12.0417 14.3368 12.1814 13.9905 12.4609 13.7109C12.7405 13.4314 13.0868 13.2917 13.5 13.2917C13.9132 13.2917 14.2595 13.4314 14.5391 13.7109C14.8186 13.9905 14.9583 14.3368 14.9583 14.75C14.9583 15.1632 14.8186 15.5095 14.5391 15.7891C14.2595 16.0686 13.9132 16.2083 13.5 16.2083ZM8.6875 26.4167H18.3125C17.6076 25.9306 16.842 25.566 16.0156 25.3229C15.1892 25.0799 14.3507 24.9583 13.5 24.9583C12.6493 24.9583 11.8108 25.0799 10.9844 25.3229C10.158 25.566 9.39236 25.9306 8.6875 26.4167Z" fill="#159EEC"/>
</g>
<defs>
<clipPath id="clip0_1_150">
<rect width="35" height="35" fill="white"/>
</clipPath>
</defs>
</svg>
