<svg width="25" height="35" viewBox="0 0 25 35" fill="none" xmlns="http://www.w3.org/2000/svg">
<path d="M5.76923 34.6154V30.7692H0V26.9231H3.84615V7.69231H0V3.84615H5.76923V0H9.61538V3.84615H13.4615V0H17.3077V4.08654C18.9744 4.53526 20.3526 5.44071 21.4423 6.80289C22.5321 8.16507 23.0769 9.74359 23.0769 11.5385C23.0769 12.4679 22.9167 13.3574 22.5962 14.2067C22.2756 15.0561 21.8269 15.8173 21.25 16.4904C22.3718 17.1635 23.2772 18.0769 23.9663 19.2308C24.6554 20.3846 25 21.6667 25 23.0769C25 25.1923 24.2468 27.0032 22.7404 28.5096C21.234 30.016 19.4231 30.7692 17.3077 30.7692V34.6154H13.4615V30.7692H9.61538V34.6154H5.76923ZM7.69231 15.3846H15.3846C16.4423 15.3846 17.3478 15.008 18.101 14.2548C18.8542 13.5016 19.2308 12.5962 19.2308 11.5385C19.2308 10.4808 18.8542 9.57532 18.101 8.82212C17.3478 8.06891 16.4423 7.69231 15.3846 7.69231H7.69231V15.3846ZM7.69231 26.9231H17.3077C18.3654 26.9231 19.2708 26.5465 20.024 25.7933C20.7772 25.0401 21.1538 24.1346 21.1538 23.0769C21.1538 22.0192 20.7772 21.1138 20.024 20.3606C19.2708 19.6074 18.3654 19.2308 17.3077 19.2308H7.69231V26.9231Z" fill="#159EEC"/>
</svg>
