<svg width="35" height="31" viewBox="0 0 35 31" fill="none" xmlns="http://www.w3.org/2000/svg">
<path d="M4.77273 20.6818C3.44697 20.6818 2.32008 20.2178 1.39205 19.2898C0.464015 18.3617 0 17.2348 0 15.9091C0 14.5833 0.464015 13.4564 1.39205 12.5284C2.32008 11.6004 3.44697 11.1364 4.77273 11.1364V7.95455C4.77273 7.07955 5.08428 6.33049 5.70739 5.70739C6.33049 5.08428 7.07955 4.77273 7.95455 4.77273H12.7273C12.7273 3.44697 13.1913 2.32008 14.1193 1.39205C15.0473 0.464015 16.1742 0 17.5 0C18.8258 0 19.9527 0.464015 20.8807 1.39205C21.8087 2.32008 22.2727 3.44697 22.2727 4.77273H27.0455C27.9205 4.77273 28.6695 5.08428 29.2926 5.70739C29.9157 6.33049 30.2273 7.07955 30.2273 7.95455V11.1364C31.553 11.1364 32.6799 11.6004 33.608 12.5284C34.536 13.4564 35 14.5833 35 15.9091C35 17.2348 34.536 18.3617 33.608 19.2898C32.6799 20.2178 31.553 20.6818 30.2273 20.6818V27.0455C30.2273 27.9205 29.9157 28.6695 29.2926 29.2926C28.6695 29.9157 27.9205 30.2273 27.0455 30.2273H7.95455C7.07955 30.2273 6.33049 29.9157 5.70739 29.2926C5.08428 28.6695 4.77273 27.9205 4.77273 27.0455V20.6818ZM12.7273 17.5C13.3902 17.5 13.9536 17.268 14.4176 16.804C14.8816 16.34 15.1136 15.7765 15.1136 15.1136C15.1136 14.4508 14.8816 13.8873 14.4176 13.4233C13.9536 12.9593 13.3902 12.7273 12.7273 12.7273C12.0644 12.7273 11.5009 12.9593 11.0369 13.4233C10.5729 13.8873 10.3409 14.4508 10.3409 15.1136C10.3409 15.7765 10.5729 16.34 11.0369 16.804C11.5009 17.268 12.0644 17.5 12.7273 17.5ZM22.2727 17.5C22.9356 17.5 23.4991 17.268 23.9631 16.804C24.4271 16.34 24.6591 15.7765 24.6591 15.1136C24.6591 14.4508 24.4271 13.8873 23.9631 13.4233C23.4991 12.9593 22.9356 12.7273 22.2727 12.7273C21.6098 12.7273 21.0464 12.9593 20.5824 13.4233C20.1184 13.8873 19.8864 14.4508 19.8864 15.1136C19.8864 15.7765 20.1184 16.34 20.5824 16.804C21.0464 17.268 21.6098 17.5 22.2727 17.5ZM11.1364 23.8636H23.8636V20.6818H11.1364V23.8636ZM7.95455 27.0455H27.0455V7.95455H7.95455V27.0455Z" fill="#159EEC"/>
</svg>
