<svg width="18" height="14" viewBox="0 0 18 14" fill="none" xmlns="http://www.w3.org/2000/svg">
<path fill-rule="evenodd" clip-rule="evenodd" d="M10.7941 0.294938C10.2295 0.103454 9.62574 0 8.99992 0C6.15341 0 3.76211 2.14032 3.44776 4.96942L3.19596 7.23563L3.18951 7.29326C3.06056 8.41695 2.6948 9.50053 2.11636 10.4725L2.08658 10.5222L1.50854 11.4856C0.983988 12.3599 0.721712 12.797 0.778332 13.1559C0.816006 13.3946 0.938895 13.6117 1.12426 13.7668C1.40283 14 1.9126 14 2.93215 14H15.0677C16.0872 14 16.597 14 16.8756 13.7668C17.0609 13.6117 17.1838 13.3946 17.2215 13.1559C17.2781 12.797 17.0159 12.3599 16.4913 11.4856L15.9133 10.5222L15.8835 10.4725C15.4272 9.70588 15.1033 8.86983 14.9235 7.99943C12.1973 7.95861 9.99992 5.73592 9.99992 3C9.99992 2.00331 10.2915 1.07473 10.7941 0.294938ZM13.274 1.98883C13.0998 2.28551 12.9999 2.63109 12.9999 3C12.9999 3.94979 13.662 4.74494 14.5498 4.94914C14.4204 3.82135 13.9607 2.80382 13.274 1.98883Z" fill="#242730"/>
</svg>
