<svg width="20" height="20" viewBox="0 0 20 20" fill="none" xmlns="http://www.w3.org/2000/svg">
<path fill-rule="evenodd" clip-rule="evenodd" d="M0.0342477 8.2156C0 8.60705 0 9.07137 0 10C0 10.9286 0 11.393 0.0342477 11.7844C0.414913 16.1354 3.86458 19.5851 8.2156 19.9658C8.60705 20 9.07137 20 10 20H15C16.8692 20 17.8038 20 18.5 19.5981C18.9561 19.3348 19.3348 18.9561 19.5981 18.5C20 17.8038 20 16.8692 20 15V10C20 9.07137 20 8.60705 19.9658 8.2156C19.5851 3.86458 16.1354 0.414913 11.7844 0.0342477C11.393 0 10.9286 0 10 0C9.07137 0 8.60705 0 8.2156 0.0342477C3.86458 0.414913 0.414913 3.86458 0.0342477 8.2156ZM6 9C6 8.44771 6.44772 8 7 8H13C13.5523 8 14 8.44771 14 9C14 9.55228 13.5523 10 13 10H7C6.44772 10 6 9.55229 6 9ZM9 13C9 12.4477 9.44772 12 10 12H13C13.5523 12 14 12.4477 14 13C14 13.5523 13.5523 14 13 14H10C9.44772 14 9 13.5523 9 13Z" fill="#242730"/>
</svg>
