<svg width="18" height="14" viewBox="0 0 18 14" fill="none" xmlns="http://www.w3.org/2000/svg">
<path fill-rule="evenodd" clip-rule="evenodd" d="M10.7942 0.294938C10.2297 0.103454 9.62586 0 9.00004 0C6.15354 0 3.76223 2.14032 3.44789 4.96942L3.19608 7.23563L3.18963 7.29326C3.06068 8.41695 2.69492 9.50053 2.11649 10.4725L2.0867 10.5222L1.50866 11.4856C0.984111 12.3599 0.721834 12.797 0.778454 13.1559C0.816128 13.3946 0.939017 13.6117 1.12438 13.7668C1.40295 14 1.91273 14 2.93227 14H15.0678C16.0874 14 16.5971 14 16.8757 13.7668C17.0611 13.6117 17.184 13.3946 17.2216 13.1559C17.2783 12.797 17.016 12.3599 16.4914 11.4856L15.9134 10.5222L15.8836 10.4725C15.4274 9.70588 15.1034 8.86983 14.9237 7.99943C12.1975 7.95861 10 5.73592 10 3C10 2.00331 10.2917 1.07473 10.7942 0.294938ZM13.2741 1.98883C13.0999 2.28551 13 2.63109 13 3C13 3.94979 13.6621 4.74494 14.5499 4.94914C14.4205 3.82135 13.9609 2.80382 13.2741 1.98883Z" fill="#242730"/>
</svg>
